<svg version="1.1" id="Layer_1" xmlns="http://www.w3.org/2000/svg" xmlns:xlink="http://www.w3.org/1999/xlink" x="0px" y="0px"
	 width="100%" viewBox="0 0 300 335" enable-background="new 0 0 300 335" xml:space="preserve">
<path fill="#F6F6F7" opacity="1.000000" stroke="none" 
	d="
M301.000000,121.000000 
	C301.000000,192.999985 301.000000,264.499969 301.000000,336.000000 
	C201.000031,336.000000 101.000061,336.000000 1.000069,336.000000 
	C1.000046,224.333389 1.000046,112.666771 1.000023,1.000114 
	C100.999931,1.000076 200.999863,1.000076 300.999878,1.000038 
	C301.000000,40.833332 301.000000,80.666664 301.000000,121.000000 
M258.994843,165.490753 
	C258.991486,156.659637 259.033997,147.828186 258.970337,138.997513 
	C258.918732,131.844925 255.578369,126.569450 249.292633,123.297760 
	C247.140167,122.177414 244.677216,121.653603 242.369247,120.861755 
	C245.076508,111.600525 243.369141,108.016304 234.898727,103.404236 
	C233.647369,102.722878 232.744675,100.335854 232.680069,98.698555 
	C231.544678,69.920380 219.316849,47.288792 195.562195,30.922007 
	C194.650269,30.293690 193.923126,29.383400 193.155807,28.561617 
	C191.133606,26.395895 189.183365,24.160786 187.109360,22.046619 
	C186.129684,21.047977 184.918152,20.279856 183.836334,19.377722 
	C181.797470,17.677502 180.044144,15.141816 177.705414,14.372819 
	C160.129578,8.593699 142.227646,7.986150 124.778908,14.176953 
	C118.901436,16.262278 114.169067,21.587210 108.944466,25.473356 
	C108.592415,25.735218 108.574883,26.405190 108.280403,26.793242 
	C106.965523,28.525923 105.907036,30.639608 104.213455,31.867374 
	C95.066811,38.498249 87.293144,46.365116 81.283470,55.960999 
	C72.370560,70.192581 68.361252,85.754921 68.757599,102.365097 
	C58.008923,107.403877 56.790672,109.679779 58.655296,120.924088 
	C47.481075,125.228691 43.174000,129.866898 43.063377,138.484482 
	C42.902977,150.979691 42.957359,163.479095 43.060043,175.975571 
	C43.107109,181.703461 45.836090,186.213638 50.407330,189.506866 
	C58.079857,195.034332 74.354050,194.331375 81.588783,188.214981 
	C89.128159,205.524307 101.147392,218.559967 118.006073,227.215286 
	C119.640190,228.054245 120.104912,231.170929 121.695198,234.421356 
	C107.906357,233.925186 96.146286,234.980682 85.234932,243.452469 
	C85.234932,235.239487 85.336342,228.620102 85.203857,222.005386 
	C85.091537,216.397369 81.938545,213.044357 76.825661,212.770294 
	C75.373199,212.692444 73.913033,212.758377 72.509041,212.758377 
	C70.942024,204.742310 68.515846,202.952332 59.544083,202.970963 
	C54.315315,191.995422 44.638672,193.730606 40.414936,203.003815 
	C30.477621,202.891312 27.928209,205.487427 27.911430,215.744598 
	C27.905977,219.077240 27.910412,222.409866 27.910393,225.742508 
	C27.910360,231.603455 27.910383,237.464401 27.910383,244.142410 
	C22.431314,239.548050 17.268143,237.855057 11.364135,240.151901 
	C6.820909,241.919373 5.529274,245.404495 7.849868,249.749725 
	C9.652793,253.125656 11.569336,256.448303 13.585272,259.701752 
	C20.914791,271.530579 28.343729,283.298035 35.618626,295.160126 
	C36.330719,296.321228 36.469246,297.971375 36.485634,299.398987 
	C36.573605,307.062958 36.675457,314.731598 36.492126,322.391937 
	C36.390099,326.655243 37.887108,328.187195 42.312874,328.118469 
	C57.305347,327.885651 72.303993,328.062378 87.300278,328.060486 
	C144.953873,328.053223 202.607559,327.999329 260.260925,328.105774 
	C264.324707,328.113281 265.573242,326.597351 265.473969,322.867249 
	C265.345428,318.038818 265.492065,313.203674 265.471344,308.371643 
	C265.442627,301.664825 264.186523,294.598358 271.142639,290.041443 
	C271.517975,289.795563 271.677765,289.213226 271.924866,288.780121 
	C279.182770,276.057770 286.455475,263.343842 293.687866,250.606995 
	C296.809723,245.109161 295.345123,240.673553 289.138947,239.988983 
	C284.288666,239.453964 279.190002,241.171234 274.089386,241.903870 
	C274.089386,233.972076 274.098022,224.834427 274.087128,215.696793 
	C274.074951,205.475510 271.555023,202.931290 261.532928,202.980331 
	C256.887878,192.868256 247.039749,192.918701 242.388992,203.003555 
	C233.484558,202.907288 232.137650,203.901260 229.075897,212.828201 
	C219.297546,212.601105 216.767120,215.107925 216.747070,225.072067 
	C216.735168,230.985382 216.744888,236.898743 216.744888,244.120071 
	C205.893677,235.462402 194.192368,233.917007 182.232224,234.316879 
	C180.678925,230.266205 181.651520,228.129181 185.211441,226.319168 
	C200.423386,218.584717 211.615463,206.842987 218.880234,191.380295 
	C219.403397,190.266739 219.991562,189.183701 220.134888,188.901825 
	C223.361954,190.401764 225.989731,192.376419 228.837006,192.772263 
	C233.249619,193.385742 237.829849,193.177475 242.307098,192.863113 
	C251.946152,192.186356 258.774414,184.730850 258.976990,174.983322 
	C259.035828,172.151749 258.991760,169.318024 258.994843,165.490753 
z"/>
<path fill="#3E67CC" opacity="1.000000" stroke="none" 
	d="
M258.994873,165.988022 
	C258.991760,169.318024 259.035828,172.151749 258.976990,174.983322 
	C258.774414,184.730850 251.946152,192.186356 242.307098,192.863113 
	C237.829849,193.177475 233.249619,193.385742 228.837006,192.772263 
	C225.989731,192.376419 223.361954,190.401764 220.134888,188.901825 
	C219.991562,189.183701 219.403397,190.266739 218.880234,191.380295 
	C211.615463,206.842987 200.423386,218.584717 185.211441,226.319168 
	C181.651520,228.129181 180.678925,230.266205 182.232224,234.316879 
	C194.192368,233.917007 205.893677,235.462402 216.744888,244.120071 
	C216.744888,236.898743 216.735168,230.985382 216.747070,225.072067 
	C216.767120,215.107925 219.297546,212.601105 229.075897,212.828201 
	C232.137650,203.901260 233.484558,202.907288 242.388992,203.003555 
	C247.039749,192.918701 256.887878,192.868256 261.532928,202.980331 
	C271.555023,202.931290 274.074951,205.475510 274.087128,215.696793 
	C274.098022,224.834427 274.089386,233.972076 274.089386,241.903870 
	C279.190002,241.171234 284.288666,239.453964 289.138947,239.988983 
	C295.345123,240.673553 296.809723,245.109161 293.687866,250.606995 
	C286.455475,263.343842 279.182770,276.057770 271.924866,288.780121 
	C271.677765,289.213226 271.517975,289.795563 271.142639,290.041443 
	C264.186523,294.598358 265.442627,301.664825 265.471344,308.371643 
	C265.492065,313.203674 265.345428,318.038818 265.473969,322.867249 
	C265.573242,326.597351 264.324707,328.113281 260.260925,328.105774 
	C202.607559,327.999329 144.953873,328.053223 87.300278,328.060486 
	C72.303993,328.062378 57.305347,327.885651 42.312874,328.118469 
	C37.887108,328.187195 36.390099,326.655243 36.492126,322.391937 
	C36.675457,314.731598 36.573605,307.062958 36.485634,299.398987 
	C36.469246,297.971375 36.330719,296.321228 35.618626,295.160126 
	C28.343729,283.298035 20.914791,271.530579 13.585272,259.701752 
	C11.569336,256.448303 9.652793,253.125656 7.849868,249.749725 
	C5.529274,245.404495 6.820909,241.919373 11.364135,240.151901 
	C17.268143,237.855057 22.431314,239.548050 27.910383,244.142410 
	C27.910383,237.464401 27.910360,231.603455 27.910393,225.742508 
	C27.910412,222.409866 27.905977,219.077240 27.911430,215.744598 
	C27.928209,205.487427 30.477621,202.891312 40.414936,203.003815 
	C44.638672,193.730606 54.315315,191.995422 59.544083,202.970963 
	C68.515846,202.952332 70.942024,204.742310 72.509041,212.758377 
	C73.913033,212.758377 75.373199,212.692444 76.825661,212.770294 
	C81.938545,213.044357 85.091537,216.397369 85.203857,222.005386 
	C85.336342,228.620102 85.234932,235.239487 85.234932,243.452469 
	C96.146286,234.980682 107.906357,233.925186 121.695198,234.421356 
	C120.104912,231.170929 119.640190,228.054245 118.006073,227.215286 
	C101.147392,218.559967 89.128159,205.524307 81.588783,188.214981 
	C74.354050,194.331375 58.079857,195.034332 50.407330,189.506866 
	C45.836090,186.213638 43.107109,181.703461 43.060043,175.975571 
	C42.957359,163.479095 42.902977,150.979691 43.063377,138.484482 
	C43.174000,129.866898 47.481075,125.228691 58.655296,120.924088 
	C56.790672,109.679779 58.008923,107.403877 68.757599,102.365097 
	C68.361252,85.754921 72.370560,70.192581 81.283470,55.960999 
	C87.293144,46.365116 95.066811,38.498249 104.213455,31.867374 
	C105.907036,30.639608 106.965523,28.525923 108.280403,26.793242 
	C108.574883,26.405190 108.592415,25.735218 108.944466,25.473356 
	C114.169067,21.587210 118.901436,16.262278 124.778908,14.176953 
	C142.227646,7.986150 160.129578,8.593699 177.705414,14.372819 
	C180.044144,15.141816 181.797470,17.677502 183.836334,19.377722 
	C184.918152,20.279856 186.129684,21.047977 187.109360,22.046619 
	C189.183365,24.160786 191.133606,26.395895 193.155807,28.561617 
	C193.923126,29.383400 194.650269,30.293690 195.562195,30.922007 
	C219.316849,47.288792 231.544678,69.920380 232.680069,98.698555 
	C232.744675,100.335854 233.647369,102.722878 234.898727,103.404236 
	C243.369141,108.016304 245.076508,111.600525 242.369247,120.861755 
	C244.677216,121.653603 247.140167,122.177414 249.292633,123.297760 
	C255.578369,126.569450 258.918732,131.844925 258.970337,138.997513 
	C259.033997,147.828186 258.991486,156.659637 258.994873,165.988022 
M112.069565,183.014877 
	C107.383904,183.060959 102.698250,183.107040 97.094826,183.014511 
	C93.378845,183.014511 89.662857,183.014511 85.772758,183.014511 
	C91.914825,205.493851 117.198700,230.538284 152.659348,229.653839 
	C182.227615,228.916351 212.810501,206.064194 215.936890,183.166855 
	C211.958984,183.166855 208.018127,183.166855 203.144241,183.020996 
	C198.761047,183.066086 194.377869,183.111176 189.067429,183.015823 
	C181.096512,182.999908 173.104202,183.305908 165.167297,182.778320 
	C162.681030,182.613068 159.736145,180.706741 158.077057,178.705444 
	C155.398163,175.473984 153.610565,171.503616 150.991913,167.076782 
	C148.486130,171.330261 146.284058,174.773438 144.385895,178.376709 
	C142.638733,181.693298 140.195236,183.105576 136.390625,183.032822 
	C128.593277,182.883713 120.789070,183.092743 112.069565,183.014877 
M109.290916,38.733383 
	C109.087593,37.706211 108.884270,36.679043 108.648705,35.488960 
	C84.388458,49.939125 71.278122,81.606964 74.490692,102.646103 
	C125.355370,102.646103 176.222824,102.646103 227.048996,102.646103 
	C229.700241,73.459129 210.136581,44.112423 192.162766,35.732719 
	C190.853836,45.819130 189.528915,55.881245 188.247086,65.948853 
	C187.031799,75.493942 186.296249,76.284645 176.875381,77.491653 
	C174.951096,87.164230 168.229996,89.734657 159.122192,89.233253 
	C151.977097,88.839905 144.792175,89.227257 137.626999,89.124290 
	C131.022034,89.029381 127.320267,86.101341 124.905724,79.877518 
	C124.454018,78.713188 122.916824,77.405830 121.702507,77.196289 
	C115.463074,76.119583 113.882095,74.563171 113.109795,68.221992 
	C111.943291,58.644070 110.691521,49.076530 109.290916,38.733383 
M40.678299,292.225250 
	C41.119339,294.266846 41.961086,296.318451 41.910397,298.347748 
	C41.828049,301.644836 42.630650,303.200134 46.338707,303.069183 
	C53.491379,302.816650 60.663189,302.855927 67.819138,303.056671 
	C71.169136,303.150665 72.426491,301.873749 71.990837,298.689423 
	C71.428108,294.576172 72.650368,291.561676 76.236908,288.975830 
	C78.114075,287.622437 79.797318,284.599091 79.828789,282.306061 
	C80.105362,262.157532 80.043732,242.003113 79.863564,221.852402 
	C79.852165,220.577606 77.949615,218.236099 77.039345,218.290024 
	C75.401291,218.387039 73.554199,219.657806 72.371841,220.961792 
	C71.675064,221.730225 72.019012,223.505539 72.014793,224.828400 
	C71.988770,232.989197 72.060074,241.151169 71.918564,249.309631 
	C71.899551,250.405838 70.864571,251.484421 70.300049,252.571167 
	C69.251678,251.670380 67.836891,250.954788 67.260887,249.815231 
	C66.715492,248.736237 67.006126,247.212509 67.004532,245.884293 
	C66.991943,235.391754 66.974373,224.899124 67.011963,214.406693 
	C67.022690,211.410248 66.897583,208.228043 63.050182,208.184265 
	C59.200291,208.140427 58.977268,211.279327 58.987869,214.304962 
	C59.026382,225.297043 59.042709,236.289597 58.963142,247.281219 
	C58.950043,249.090927 58.413414,250.896835 58.118736,252.704483 
	C57.440136,252.810974 56.761536,252.917450 56.082935,253.023926 
	C55.387756,250.986984 54.117920,248.957733 54.090466,246.911819 
	C53.909477,233.423813 54.142384,219.928741 53.821884,206.445908 
	C53.778633,204.626373 51.391075,202.862579 50.089046,201.072968 
	C48.727814,202.803406 47.173130,204.423096 46.091095,206.313339 
	C45.588230,207.191818 46.002911,208.595947 46.002853,209.761780 
	C46.002277,222.252914 46.091869,234.745529 45.887817,247.233337 
	C45.862286,248.795883 44.285545,250.333069 43.427540,251.882004 
	C42.617519,250.408463 41.134487,248.947998 41.105560,247.459259 
	C40.901787,236.970673 41.034702,226.476028 40.974293,215.983826 
	C40.955944,212.796936 41.966713,208.307266 37.126709,208.257919 
	C31.868971,208.204315 33.059006,212.926178 33.033741,216.225983 
	C32.950855,227.050995 33.004181,237.877029 33.000271,248.702682 
	C32.999851,249.867920 33.282684,251.162613 32.870686,252.165863 
	C32.347931,253.438858 31.445774,254.847015 30.310760,255.447495 
	C29.790167,255.722916 28.110258,254.392670 27.329704,253.473343 
	C25.511881,251.332336 24.167648,248.746384 22.179857,246.802597 
	C19.181046,243.870148 15.711584,243.160828 11.832221,246.219894 
	C18.984402,258.805847 25.901997,271.254486 33.137054,283.515778 
	C34.929985,286.554230 37.752079,288.985382 40.678299,292.225250 
M261.002441,244.360291 
	C261.002411,245.360184 261.242676,246.437210 260.951721,247.343719 
	C260.371490,249.151535 259.499573,250.865738 258.748138,252.618607 
	C257.831573,250.854355 256.200989,249.120605 256.124084,247.320480 
	C255.818436,240.167847 255.998672,232.994507 255.997314,225.828827 
	C255.996063,219.163086 256.255035,212.479645 255.806946,205.844009 
	C255.694229,204.175003 253.312851,202.659195 251.974075,201.072983 
	C250.652252,202.676346 249.176392,204.183258 248.082886,205.929581 
	C247.632645,206.648666 248.003342,207.882782 248.003311,208.882629 
	C248.002884,221.380905 248.131454,233.881775 247.877121,246.374878 
	C247.834427,248.472031 246.134644,250.535416 245.200546,252.614410 
	C244.466049,250.679413 243.133514,248.755844 243.096283,246.807526 
	C242.889359,235.979645 242.973297,225.145645 243.011978,214.313965 
	C243.022797,211.288818 242.807297,208.144135 238.953857,208.184357 
	C235.102600,208.224564 234.977859,211.409134 234.988068,214.407379 
	C235.024933,225.239090 235.108749,236.072983 234.908295,246.901108 
	C234.870300,248.953201 233.615555,250.982788 232.922241,253.022751 
	C232.263779,252.920166 231.605316,252.817596 230.946854,252.715012 
	C230.630280,251.071793 230.059860,249.431610 230.040161,247.784836 
	C229.944489,239.787079 229.955322,231.787247 230.016159,223.788818 
	C230.040848,220.544144 229.183960,218.084717 225.427887,218.051743 
	C221.608047,218.018173 222.007614,220.903702 222.006500,223.399780 
	C221.997849,242.563797 221.853012,261.730255 222.167496,280.889130 
	C222.213272,283.678070 223.756454,287.356537 225.869431,288.992310 
	C229.413452,291.735931 230.463409,294.734222 230.009888,298.783844 
	C229.697800,301.570557 230.492844,303.127045 233.779312,303.049866 
	C241.274155,302.873932 248.777344,302.910797 256.274170,303.036774 
	C259.099823,303.084290 260.372620,302.011322 259.980347,299.236420 
	C259.381256,294.998566 260.649139,291.874420 264.593414,289.722656 
	C265.907227,289.005920 266.733154,287.236725 267.565308,285.821198 
	C272.363525,277.659271 277.139282,269.483429 281.836151,261.262878 
	C284.684540,256.277557 287.376770,251.203018 290.206238,246.046356 
	C285.715393,243.157700 282.171295,244.035126 279.177338,247.395065 
	C277.422546,249.364334 276.138245,251.746384 274.462708,253.795883 
	C273.797211,254.609894 272.397003,255.703384 271.771454,255.473251 
	C270.708496,255.082214 269.657593,253.874817 269.225525,252.767120 
	C268.769348,251.597504 269.004761,250.143326 269.003540,248.813400 
	C268.992981,237.148346 268.973816,225.483215 269.013031,213.818298 
	C269.022949,210.873657 268.458649,208.136505 264.958496,208.170822 
	C261.458405,208.205154 260.972900,210.981918 260.986176,213.903595 
	C261.030914,223.735367 261.002716,233.567474 261.002441,244.360291 
M148.507996,84.123863 
	C153.167603,84.123116 157.827896,84.172920 162.486633,84.108887 
	C168.387070,84.027786 171.050797,81.740685 171.787521,75.946556 
	C173.987762,58.642178 175.986282,41.310814 178.368225,24.031982 
	C178.856415,20.490595 177.740005,19.174057 174.606644,18.576942 
	C169.227463,17.551851 163.913071,16.011650 158.491562,15.419212 
	C146.117981,14.067079 134.072922,15.772535 122.344894,20.087425 
	C124.650047,38.653080 126.826439,56.778809 129.183640,74.880989 
	C130.164581,82.414085 132.336365,84.089783 140.024979,84.121742 
	C142.521164,84.132118 145.017395,84.123802 148.507996,84.123863 
M176.499985,118.208946 
	C188.488647,118.209023 200.477905,118.146172 212.465454,118.261391 
	C214.912277,118.284904 217.348740,119.004692 219.796906,119.355164 
	C224.132019,119.975754 228.522827,121.206932 232.788635,120.875069 
	C234.811096,120.717728 238.025101,117.619957 238.125122,115.718910 
	C238.244888,113.442108 235.958984,110.665077 234.036667,108.806091 
	C233.016541,107.819580 230.561005,108.167953 228.753311,108.167015 
	C176.635864,108.140015 124.518410,108.139496 72.400970,108.168777 
	C70.596138,108.169792 68.258736,107.886620 67.109039,108.853287 
	C65.289398,110.383232 63.296158,112.813141 63.194420,114.948837 
	C63.104160,116.843369 65.253113,120.282349 66.826149,120.542191 
	C71.125542,121.252373 75.670258,120.917732 80.064781,120.472923 
	C83.609970,120.114075 87.073631,118.335670 90.580826,118.312737 
	C118.886223,118.127647 147.193359,118.209068 176.499985,118.208946 
M233.610504,187.924057 
	C236.269958,187.917862 238.939728,188.060211 241.586884,187.876617 
	C248.527634,187.395203 253.719284,182.573685 253.856812,175.798767 
	C254.109772,163.337646 254.080353,150.865189 253.867584,138.402588 
	C253.761856,132.209412 249.663254,127.692932 243.527206,126.800255 
	C239.609818,126.230347 235.569351,126.567642 231.605759,126.237640 
	C227.240250,125.874184 225.857513,127.630692 225.908936,131.990372 
	C226.102982,148.443405 225.943939,164.900513 225.933640,181.356094 
	C225.929565,187.868378 225.949265,187.868393 233.610504,187.924057 
M76.005211,138.531189 
	C76.004646,136.038605 75.850395,133.534225 76.040695,131.056290 
	C76.304893,127.616005 74.866241,126.130836 71.453957,126.265800 
	C67.474091,126.423210 63.454350,126.153862 59.514294,126.609329 
	C52.320999,127.440865 48.157555,132.102264 48.080471,139.324234 
	C47.954552,151.121185 47.949413,162.921539 48.079922,174.718384 
	C48.166882,182.579224 53.376934,187.650681 61.313896,187.902695 
	C64.468056,188.002838 67.644997,187.715134 70.781105,187.973663 
	C75.069763,188.327209 76.186203,186.378677 76.134178,182.391571 
	C75.947723,168.102997 76.026649,153.810974 76.005211,138.531189 
M144.616852,303.067017 
	C137.193954,295.689026 131.004562,287.267334 128.027924,277.293976 
	C124.869087,266.710144 122.999649,255.723450 120.909912,244.846848 
	C119.979256,240.003036 120.360367,239.929810 116.405396,240.481384 
	C116.405396,267.849792 116.405396,295.218201 116.405396,322.601501 
	C127.161621,322.601501 137.564758,322.601501 148.381119,322.601501 
	C148.381119,318.469635 148.771545,314.606415 148.244980,310.872467 
	C147.889114,308.349060 146.241653,306.007782 144.616852,303.067017 
M173.332993,251.616394 
	C176.917648,245.149643 176.433594,238.213165 175.931259,230.560822 
	C159.214127,236.110031 142.726501,236.028198 126.329971,230.682083 
	C123.947273,247.074310 129.662674,258.709625 141.944153,263.419922 
	C153.660629,267.913513 165.593231,263.639404 173.332993,251.616394 
M215.768433,177.886002 
	C219.900360,176.814529 221.047806,173.877548 221.025085,169.949509 
	C220.950867,157.117172 221.020660,144.284058 220.987274,131.451370 
	C220.971207,125.273674 219.158463,123.375801 213.084854,123.019020 
	C211.756073,122.940979 210.418961,123.003265 209.085693,123.003258 
	C170.420700,123.003006 131.755707,123.002762 93.090714,123.003220 
	C81.855606,123.003357 81.002785,123.870117 81.002754,135.274887 
	C81.002724,146.441071 80.992805,157.607269 81.006271,168.773438 
	C81.015144,176.132126 82.824928,177.985062 90.049965,177.993210 
	C104.549309,178.009567 119.051598,177.837753 133.546219,178.099823 
	C137.676315,178.174484 140.014206,176.919174 141.536880,173.106369 
	C142.697708,170.199661 144.468597,167.516403 146.131699,164.835220 
	C148.621017,160.822006 153.357361,160.793518 155.842667,164.791626 
	C157.595993,167.612228 159.388519,170.461868 160.674789,173.505127 
	C162.104294,176.887283 164.160385,178.133423 167.902390,178.083145 
	C183.565598,177.872787 199.233078,177.982681 215.768433,177.886002 
M184.961456,259.500427 
	C184.961456,253.054260 184.961456,246.608109 184.961456,239.844910 
	C179.839508,240.240997 181.343277,243.939194 181.158981,246.183990 
	C179.484909,266.572632 174.140594,285.827515 159.380783,300.510712 
	C152.233734,307.620697 153.827667,314.733826 153.891815,322.604492 
	C164.474182,322.604492 174.521744,322.604492 184.961426,322.604492 
	C184.961426,301.680420 184.961426,281.090332 184.961456,259.500427 
M135.166290,281.273987 
	C139.202194,289.113922 144.105286,296.264252 151.160492,302.105957 
	C162.965393,290.964294 170.081253,277.932190 172.667206,262.305359 
	C157.975189,273.254730 143.677643,272.880829 129.364746,261.719452 
	C128.988007,262.047333 128.611267,262.375183 128.234543,262.703033 
	C130.446579,268.663177 132.658615,274.623291 135.166290,281.273987 
M198.800812,290.500000 
	C198.800842,276.037109 198.802444,261.574188 198.800201,247.111298 
	C198.799057,239.744949 197.927689,239.064957 190.294128,240.539169 
	C190.294128,267.856354 190.294128,295.190186 190.294128,322.625916 
	C193.190292,322.625916 195.750275,322.625916 198.800568,322.625916 
	C198.800568,312.039307 198.800568,301.769653 198.800812,290.500000 
M102.076111,319.241699 
	C102.517738,326.606201 107.709839,321.302673 110.741119,323.183228 
	C110.741119,295.019348 110.741119,267.637939 110.741119,240.285431 
	C102.536812,239.484039 102.076210,239.872437 102.075874,247.352142 
	C102.074799,270.999786 102.075546,294.647400 102.076111,319.241699 
M216.826157,276.415100 
	C216.834045,269.095581 216.790512,261.775482 216.873795,254.456802 
	C216.909775,251.293793 215.878174,249.107742 212.178802,248.169373 
	C213.225189,273.190338 214.255478,297.826050 215.289673,322.555511 
	C218.765366,322.555511 221.787582,322.555511 225.119797,322.555511 
	C225.119797,313.970642 225.181641,305.829987 225.050140,297.692505 
	C225.031372,296.531769 224.381531,295.012207 223.503845,294.294769 
	C218.083542,289.864227 216.453888,284.043793 216.826157,276.415100 
M230.192337,313.618561 
	C230.192337,316.562286 230.192337,319.505981 230.192337,322.628845 
	C240.475754,322.628845 250.165955,322.628845 259.936249,322.628845 
	C259.936249,317.684540 259.936249,313.110748 259.936249,308.270691 
	C250.059097,308.270691 240.488449,308.270691 230.510223,308.270691 
	C230.399872,309.804199 230.296341,311.242737 230.192337,313.618561 
M70.977158,322.704987 
	C71.325165,317.906952 71.673164,313.108917 72.019272,308.337097 
	C61.350975,308.337097 51.777328,308.337097 42.032532,308.337097 
	C42.032532,313.250092 42.032532,317.824036 42.032532,322.941437 
	C51.561890,322.941437 60.823929,322.941437 70.977158,322.704987 
M86.279121,305.925354 
	C87.103928,286.797699 87.928726,267.670044 88.753532,248.542404 
	C88.168175,248.398224 87.582817,248.254059 86.997452,248.109879 
	C86.379585,249.999924 85.271622,251.878738 85.227951,253.781952 
	C85.029709,262.419556 85.084167,271.064392 85.142624,279.705933 
	C85.179512,285.159332 83.430016,289.763611 79.334648,293.464508 
	C78.391594,294.316742 77.075119,295.473907 77.053276,296.514313 
	C76.870201,305.233154 76.949142,313.957520 76.949142,322.608765 
	C80.332039,322.608765 82.889839,322.608765 86.185059,322.608765 
	C86.185059,317.099609 86.185059,311.979401 86.279121,305.925354 
M92.985947,268.431824 
	C92.220535,286.456604 91.455116,304.481354 90.684349,322.632202 
	C93.201828,322.632202 94.927788,322.632202 96.801392,322.632202 
	C96.801392,295.988770 96.801392,269.651276 96.801392,243.313766 
	C96.287086,243.251740 95.772789,243.189728 95.258484,243.127701 
	C92.241142,250.904144 93.676094,259.332092 92.985947,268.431824 
M209.774963,306.759369 
	C208.873886,287.166138 208.002487,267.571411 207.019760,247.982269 
	C206.934113,246.275269 206.116135,244.604980 205.638321,242.917648 
	C205.161636,243.048843 204.684937,243.180054 204.208252,243.311264 
	C204.208252,269.780914 204.208252,296.250580 204.208252,322.981812 
	C206.390549,322.867188 208.124939,322.776123 209.816284,322.687317 
	C209.816284,317.328674 209.816284,312.519562 209.774963,306.759369 
M118.982430,34.415569 
	C118.623375,31.689268 118.264313,28.962965 117.901909,26.211262 
	C114.280769,26.837126 112.861198,28.242769 113.366020,31.755278 
	C115.113792,43.915916 116.626198,56.111378 118.122513,68.306549 
	C118.571915,71.969215 120.458344,72.517227 123.855797,71.565559 
	C122.232430,59.277420 120.648056,47.284477 118.982430,34.415569 
M179.911682,52.233761 
	C179.031555,58.732456 178.151413,65.231148 177.274536,71.705719 
	C181.739426,72.761108 182.735397,70.690559 183.135117,67.307877 
	C184.557724,55.269211 186.094681,43.242043 187.785202,31.238243 
	C188.319595,27.443747 186.170929,26.912308 183.057587,26.280251 
	C181.997101,34.880844 180.982376,43.110352 179.911682,52.233761 
M128.484818,260.669983 
	C128.484818,260.669983 128.434814,260.560699 128.484818,260.669983 
M173.477402,260.661652 
	C173.477402,260.661652 173.430542,260.556763 173.477402,260.661652 
z"/>
<path fill="#FDE993" opacity="1.000000" stroke="none" 
	d="
M109.383453,39.118980 
	C110.691521,49.076530 111.943291,58.644070 113.109795,68.221992 
	C113.882095,74.563171 115.463074,76.119583 121.702507,77.196289 
	C122.916824,77.405830 124.454018,78.713188 124.905724,79.877518 
	C127.320267,86.101341 131.022034,89.029381 137.626999,89.124290 
	C144.792175,89.227257 151.977097,88.839905 159.122192,89.233253 
	C168.229996,89.734657 174.951096,87.164230 176.875381,77.491653 
	C186.296249,76.284645 187.031799,75.493942 188.247086,65.948853 
	C189.528915,55.881245 190.853836,45.819130 192.162766,35.732719 
	C210.136581,44.112423 229.700241,73.459129 227.048996,102.646103 
	C176.222824,102.646103 125.355370,102.646103 74.490692,102.646103 
	C71.278122,81.606964 84.388458,49.939125 108.648705,35.488960 
	C108.884270,36.679043 109.087593,37.706211 109.383453,39.118980 
z"/>
<path fill="#F7CECF" opacity="1.000000" stroke="none" 
	d="
M204.077271,183.166855 
	C208.018127,183.166855 211.958984,183.166855 215.936890,183.166855 
	C212.810501,206.064194 182.227615,228.916351 152.659348,229.653839 
	C117.198700,230.538284 91.914825,205.493851 85.772758,183.014511 
	C89.662857,183.014511 93.378845,183.014511 97.328064,183.332611 
	C96.068611,185.976837 93.049271,188.654953 93.483177,190.536865 
	C93.985916,192.717316 97.278725,195.020416 99.806366,195.773819 
	C102.954720,196.712234 106.788132,196.893250 109.900169,195.968765 
	C112.869492,195.086700 116.178017,192.837250 117.562599,190.242035 
	C118.205887,189.036240 114.643547,185.586716 112.987694,183.154327 
	C120.789070,183.092743 128.593277,182.883713 136.390625,183.032822 
	C140.195236,183.105576 142.638733,181.693298 144.385895,178.376709 
	C146.284058,174.773438 148.486130,171.330261 150.991913,167.076782 
	C153.610565,171.503616 155.398163,175.473984 158.077057,178.705444 
	C159.736145,180.706741 162.681030,182.613068 165.167297,182.778320 
	C173.104202,183.305908 181.096512,182.999908 189.305939,183.335876 
	C184.050797,187.565674 183.197662,191.516022 187.332123,194.116623 
	C193.722092,198.135956 200.321335,197.725967 206.746582,194.428909 
	C211.128311,192.180450 211.100723,187.711380 206.995941,185.013916 
	C206.033905,184.381714 205.050720,183.781693 204.077271,183.166855 
M160.679459,190.259354 
	C153.666122,194.328659 146.878036,193.941132 140.085968,189.551941 
	C138.855347,188.756668 136.937592,189.024658 135.337051,188.801804 
	C136.007492,190.455505 136.216461,192.660202 137.424500,193.672058 
	C144.412552,199.525131 157.102463,199.642868 164.281723,193.880447 
	C165.584564,192.834702 165.821167,190.460556 166.550018,188.699646 
	C164.814667,189.085754 163.079300,189.471863 160.679459,190.259354 
z"/>
<path fill="#4671C6" opacity="1.000000" stroke="none" 
	d="
M40.389694,291.960480 
	C37.752079,288.985382 34.929985,286.554230 33.137054,283.515778 
	C25.901997,271.254486 18.984402,258.805847 11.832221,246.219894 
	C15.711584,243.160828 19.181046,243.870148 22.179857,246.802597 
	C24.167648,248.746384 25.511881,251.332336 27.329704,253.473343 
	C28.110258,254.392670 29.790167,255.722916 30.310760,255.447495 
	C31.445774,254.847015 32.347931,253.438858 32.870686,252.165863 
	C33.282684,251.162613 32.999851,249.867920 33.000271,248.702682 
	C33.004181,237.877029 32.950855,227.050995 33.033741,216.225983 
	C33.059006,212.926178 31.868971,208.204315 37.126709,208.257919 
	C41.966713,208.307266 40.955944,212.796936 40.974293,215.983826 
	C41.034702,226.476028 40.901787,236.970673 41.105560,247.459259 
	C41.134487,248.947998 42.617519,250.408463 43.427544,251.882004 
	C44.285545,250.333069 45.862286,248.795883 45.887817,247.233337 
	C46.091869,234.745529 46.002277,222.252914 46.002853,209.761780 
	C46.002911,208.595947 45.588230,207.191818 46.091095,206.313339 
	C47.173130,204.423096 48.727814,202.803406 50.089043,201.072968 
	C51.391075,202.862579 53.778633,204.626373 53.821884,206.445908 
	C54.142384,219.928741 53.909477,233.423813 54.090466,246.911819 
	C54.117920,248.957733 55.387756,250.986984 56.082935,253.023926 
	C56.761536,252.917450 57.440136,252.810974 58.118736,252.704483 
	C58.413414,250.896835 58.950043,249.090927 58.963142,247.281219 
	C59.042709,236.289597 59.026382,225.297043 58.987869,214.304962 
	C58.977268,211.279327 59.200291,208.140427 63.050182,208.184265 
	C66.897583,208.228043 67.022690,211.410248 67.011963,214.406693 
	C66.974373,224.899124 66.991943,235.391754 67.004532,245.884293 
	C67.006126,247.212509 66.715492,248.736237 67.260887,249.815231 
	C67.836891,250.954788 69.251678,251.670380 70.300049,252.571167 
	C70.864571,251.484421 71.899551,250.405838 71.918564,249.309631 
	C72.060074,241.151169 71.988770,232.989197 72.014793,224.828400 
	C72.019012,223.505539 71.675064,221.730225 72.371841,220.961792 
	C73.554199,219.657806 75.401291,218.387039 77.039345,218.290024 
	C77.949615,218.236099 79.852165,220.577606 79.863564,221.852402 
	C80.043732,242.003113 80.105362,262.157532 79.828789,282.306061 
	C79.797318,284.599091 78.114075,287.622437 76.236908,288.975830 
	C72.650368,291.561676 71.428108,294.576172 71.990837,298.689423 
	C72.426491,301.873749 71.169136,303.150665 67.819138,303.056671 
	C60.663189,302.855927 53.491379,302.816650 46.338707,303.069183 
	C42.630650,303.200134 41.828049,301.644836 41.910397,298.347748 
	C41.961086,296.318451 41.119339,294.266846 40.389694,291.960480 
z"/>
<path fill="#4671C6" opacity="1.000000" stroke="none" 
	d="
M261.002441,243.879868 
	C261.002716,233.567474 261.030914,223.735367 260.986176,213.903595 
	C260.972900,210.981918 261.458405,208.205154 264.958496,208.170822 
	C268.458649,208.136505 269.022949,210.873657 269.013031,213.818298 
	C268.973816,225.483215 268.992981,237.148346 269.003540,248.813400 
	C269.004761,250.143326 268.769348,251.597504 269.225525,252.767120 
	C269.657593,253.874817 270.708496,255.082214 271.771454,255.473251 
	C272.397003,255.703384 273.797211,254.609894 274.462708,253.795883 
	C276.138245,251.746384 277.422546,249.364334 279.177338,247.395065 
	C282.171295,244.035126 285.715393,243.157700 290.206238,246.046356 
	C287.376770,251.203018 284.684540,256.277557 281.836151,261.262878 
	C277.139282,269.483429 272.363525,277.659271 267.565308,285.821198 
	C266.733154,287.236725 265.907227,289.005920 264.593414,289.722656 
	C260.649139,291.874420 259.381256,294.998566 259.980347,299.236420 
	C260.372620,302.011322 259.099823,303.084290 256.274170,303.036774 
	C248.777344,302.910797 241.274155,302.873932 233.779312,303.049866 
	C230.492844,303.127045 229.697800,301.570557 230.009888,298.783844 
	C230.463409,294.734222 229.413452,291.735931 225.869431,288.992310 
	C223.756454,287.356537 222.213272,283.678070 222.167496,280.889130 
	C221.853012,261.730255 221.997849,242.563797 222.006500,223.399780 
	C222.007614,220.903702 221.608047,218.018173 225.427887,218.051743 
	C229.183960,218.084717 230.040848,220.544144 230.016159,223.788818 
	C229.955322,231.787247 229.944489,239.787079 230.040161,247.784836 
	C230.059860,249.431610 230.630280,251.071793 230.946854,252.715012 
	C231.605316,252.817596 232.263779,252.920166 232.922241,253.022751 
	C233.615555,250.982788 234.870300,248.953201 234.908295,246.901108 
	C235.108749,236.072983 235.024933,225.239090 234.988068,214.407379 
	C234.977859,211.409134 235.102600,208.224564 238.953857,208.184357 
	C242.807297,208.144135 243.022797,211.288818 243.011978,214.313965 
	C242.973297,225.145645 242.889359,235.979645 243.096283,246.807526 
	C243.133514,248.755844 244.466049,250.679413 245.200546,252.614410 
	C246.134644,250.535416 247.834427,248.472031 247.877121,246.374878 
	C248.131454,233.881775 248.002884,221.380905 248.003311,208.882629 
	C248.003342,207.882782 247.632645,206.648666 248.082886,205.929581 
	C249.176392,204.183258 250.652252,202.676346 251.974060,201.072983 
	C253.312851,202.659195 255.694229,204.175003 255.806946,205.844009 
	C256.255035,212.479645 255.996063,219.163086 255.997314,225.828827 
	C255.998672,232.994507 255.818436,240.167847 256.124084,247.320480 
	C256.200989,249.120605 257.831573,250.854355 258.748138,252.618607 
	C259.499573,250.865738 260.371490,249.151535 260.951721,247.343719 
	C261.242676,246.437210 261.002411,245.360184 261.002441,243.879868 
z"/>
<path fill="#FDE993" opacity="1.000000" stroke="none" 
	d="
M148.010803,84.123955 
	C145.017395,84.123802 142.521164,84.132118 140.024979,84.121742 
	C132.336365,84.089783 130.164581,82.414085 129.183640,74.880989 
	C126.826439,56.778809 124.650047,38.653080 122.344894,20.087425 
	C134.072922,15.772535 146.117981,14.067079 158.491562,15.419212 
	C163.913071,16.011650 169.227463,17.551851 174.606644,18.576942 
	C177.740005,19.174057 178.856415,20.490595 178.368225,24.031982 
	C175.986282,41.310814 173.987762,58.642178 171.787521,75.946556 
	C171.050797,81.740685 168.387070,84.027786 162.486633,84.108887 
	C157.827896,84.172920 153.167603,84.123116 148.010803,84.123955 
z"/>
<path fill="#F9E694" opacity="1.000000" stroke="none" 
	d="
M175.999969,118.209038 
	C147.193359,118.209068 118.886223,118.127647 90.580826,118.312737 
	C87.073631,118.335670 83.609970,120.114075 80.064781,120.472923 
	C75.670258,120.917732 71.125542,121.252373 66.826149,120.542191 
	C65.253113,120.282349 63.104160,116.843369 63.194420,114.948837 
	C63.296158,112.813141 65.289398,110.383232 67.109039,108.853287 
	C68.258736,107.886620 70.596138,108.169792 72.400970,108.168777 
	C124.518410,108.139496 176.635864,108.140015 228.753311,108.167015 
	C230.561005,108.167953 233.016541,107.819580 234.036667,108.806091 
	C235.958984,110.665077 238.244888,113.442108 238.125122,115.718910 
	C238.025101,117.619957 234.811096,120.717728 232.788635,120.875069 
	C228.522827,121.206932 224.132019,119.975754 219.796906,119.355164 
	C217.348740,119.004692 214.912277,118.284904 212.465454,118.261391 
	C200.477905,118.146172 188.488647,118.209023 175.999969,118.209038 
z"/>
<path fill="#F7A6A7" opacity="1.000000" stroke="none" 
	d="
M233.140594,187.924011 
	C225.949265,187.868393 225.929565,187.868378 225.933640,181.356094 
	C225.943939,164.900513 226.102982,148.443405 225.908936,131.990372 
	C225.857513,127.630692 227.240250,125.874184 231.605759,126.237640 
	C235.569351,126.567642 239.609818,126.230347 243.527206,126.800255 
	C249.663254,127.692932 253.761856,132.209412 253.867584,138.402588 
	C254.080353,150.865189 254.109772,163.337646 253.856812,175.798767 
	C253.719284,182.573685 248.527634,187.395203 241.586884,187.876617 
	C238.939728,188.060211 236.269958,187.917862 233.140594,187.924011 
z"/>
<path fill="#F7A6A7" opacity="1.000000" stroke="none" 
	d="
M76.005219,139.025726 
	C76.026649,153.810974 75.947723,168.102997 76.134178,182.391571 
	C76.186203,186.378677 75.069763,188.327209 70.781105,187.973663 
	C67.644997,187.715134 64.468056,188.002838 61.313896,187.902695 
	C53.376934,187.650681 48.166882,182.579224 48.079922,174.718384 
	C47.949413,162.921539 47.954552,151.121185 48.080471,139.324234 
	C48.157555,132.102264 52.320999,127.440865 59.514294,126.609329 
	C63.454350,126.153862 67.474091,126.423210 71.453957,126.265800 
	C74.866241,126.130836 76.304893,127.616005 76.040695,131.056290 
	C75.850395,133.534225 76.004646,136.038605 76.005219,139.025726 
z"/>
<path fill="#FCE893" opacity="1.000000" stroke="none" 
	d="
M144.894379,303.326050 
	C146.241653,306.007782 147.889114,308.349060 148.244980,310.872467 
	C148.771545,314.606415 148.381119,318.469635 148.381119,322.601501 
	C137.564758,322.601501 127.161621,322.601501 116.405396,322.601501 
	C116.405396,295.218201 116.405396,267.849792 116.409302,240.480652 
	C120.360367,239.929810 119.979256,240.003036 120.909912,244.846848 
	C122.999649,255.723450 124.869087,266.710144 128.027924,277.293976 
	C131.004562,287.267334 137.193954,295.689026 144.894379,303.326050 
z"/>
<path fill="#F7CECF" opacity="1.000000" stroke="none" 
	d="
M173.169907,251.955002 
	C165.593231,263.639404 153.660629,267.913513 141.944153,263.419922 
	C129.662674,258.709625 123.947273,247.074310 126.329971,230.682083 
	C142.726501,236.028198 159.214127,236.110031 175.931259,230.560822 
	C176.433594,238.213165 176.917648,245.149643 173.169907,251.955002 
z"/>
<path fill="#4570C7" opacity="1.000000" stroke="none" 
	d="
M215.333710,177.930618 
	C199.233078,177.982681 183.565598,177.872787 167.902390,178.083145 
	C164.160385,178.133423 162.104294,176.887283 160.674789,173.505127 
	C159.388519,170.461868 157.595993,167.612228 155.842667,164.791626 
	C153.357361,160.793518 148.621017,160.822006 146.131699,164.835220 
	C144.468597,167.516403 142.697708,170.199661 141.536880,173.106369 
	C140.014206,176.919174 137.676315,178.174484 133.546219,178.099823 
	C119.051598,177.837753 104.549309,178.009567 90.049965,177.993210 
	C82.824928,177.985062 81.015144,176.132126 81.006271,168.773438 
	C80.992805,157.607269 81.002724,146.441071 81.002754,135.274887 
	C81.002785,123.870117 81.855606,123.003357 93.090714,123.003220 
	C131.755707,123.002762 170.420700,123.003006 209.085693,123.003258 
	C210.418961,123.003265 211.756073,122.940979 213.084854,123.019020 
	C219.158463,123.375801 220.971207,125.273674 220.987274,131.451370 
	C221.020660,144.284058 220.950867,157.117172 221.025085,169.949509 
	C221.047806,173.877548 219.900360,176.814529 215.333710,177.930618 
M156.905029,161.406250 
	C158.640503,164.025345 160.683731,166.495529 162.039810,169.298187 
	C164.107605,173.571762 167.025970,175.225357 171.887741,175.107376 
	C185.029297,174.788437 198.186539,174.841354 211.331497,175.080063 
	C216.162674,175.167801 218.002548,173.098129 217.999054,168.626770 
	C217.989670,156.642593 217.924164,144.657761 218.035629,132.674622 
	C218.075134,128.428574 216.428299,126.906815 212.077530,126.920647 
	C171.298462,127.050354 130.518677,127.042473 89.739510,126.928238 
	C85.661728,126.916817 83.952835,128.314545 83.977890,132.357849 
	C84.053192,144.507996 83.988892,156.658951 84.013939,168.809525 
	C84.022522,172.974960 85.693939,175.173965 90.351936,175.070770 
	C100.832939,174.838577 111.324883,175.136902 121.808258,174.966095 
	C138.119568,174.700317 135.375870,177.659912 143.326767,163.567276 
	C146.316132,158.268768 151.323807,157.490768 156.905029,161.406250 
z"/>
<path fill="#FAE793" opacity="1.000000" stroke="none" 
	d="
M184.961441,260.000305 
	C184.961426,281.090332 184.961426,301.680420 184.961426,322.604492 
	C174.521744,322.604492 164.474182,322.604492 153.891815,322.604492 
	C153.827667,314.733826 152.233734,307.620697 159.380783,300.510712 
	C174.140594,285.827515 179.484909,266.572632 181.158981,246.183990 
	C181.343277,243.939194 179.839508,240.240997 184.961456,239.844910 
	C184.961456,246.608109 184.961456,253.054260 184.961441,260.000305 
z"/>
<path fill="#A1C6FE" opacity="1.000000" stroke="none" 
	d="
M135.018463,280.928711 
	C132.658615,274.623291 130.446579,268.663177 128.234543,262.703033 
	C128.611267,262.375183 128.988007,262.047333 129.364746,261.719452 
	C143.677643,272.880829 157.975189,273.254730 172.667206,262.305359 
	C170.081253,277.932190 162.965393,290.964294 151.160492,302.105957 
	C144.105286,296.264252 139.202194,289.113922 135.018463,280.928711 
z"/>
<path fill="#D8E5FA" opacity="1.000000" stroke="none" 
	d="
M198.800690,291.000000 
	C198.800568,301.769653 198.800568,312.039307 198.800568,322.625916 
	C195.750275,322.625916 193.190292,322.625916 190.294128,322.625916 
	C190.294128,295.190186 190.294128,267.856354 190.294128,240.539169 
	C197.927689,239.064957 198.799057,239.744949 198.800201,247.111298 
	C198.802444,261.574188 198.800842,276.037109 198.800690,291.000000 
z"/>
<path fill="#DDE8FB" opacity="1.000000" stroke="none" 
	d="
M102.075851,318.768372 
	C102.075546,294.647400 102.074799,270.999786 102.075874,247.352142 
	C102.076210,239.872437 102.536812,239.484039 110.741119,240.285431 
	C110.741119,267.637939 110.741119,295.019348 110.741119,323.183228 
	C107.709839,321.302673 102.517738,326.606201 102.075851,318.768372 
z"/>
<path fill="#9EC3FC" opacity="1.000000" stroke="none" 
	d="
M216.827560,276.898804 
	C216.453888,284.043793 218.083542,289.864227 223.503845,294.294769 
	C224.381531,295.012207 225.031372,296.531769 225.050140,297.692505 
	C225.181641,305.829987 225.119797,313.970642 225.119797,322.555511 
	C221.787582,322.555511 218.765366,322.555511 215.289673,322.555511 
	C214.255478,297.826050 213.225189,273.190338 212.178802,248.169373 
	C215.878174,249.107742 216.909775,251.293793 216.873795,254.456802 
	C216.790512,261.775482 216.834045,269.095581 216.827560,276.898804 
z"/>
<path fill="#F4CCCF" opacity="1.000000" stroke="none" 
	d="
M230.192566,313.149902 
	C230.296341,311.242737 230.399872,309.804199 230.510223,308.270691 
	C240.488449,308.270691 250.059097,308.270691 259.936249,308.270691 
	C259.936249,313.110748 259.936249,317.684540 259.936249,322.628845 
	C250.165955,322.628845 240.475754,322.628845 230.192337,322.628845 
	C230.192337,319.505981 230.192337,316.562286 230.192566,313.149902 
z"/>
<path fill="#F4CCCF" opacity="1.000000" stroke="none" 
	d="
M70.531563,322.823212 
	C60.823929,322.941437 51.561890,322.941437 42.032532,322.941437 
	C42.032532,317.824036 42.032532,313.250092 42.032532,308.337097 
	C51.777328,308.337097 61.350975,308.337097 72.019272,308.337097 
	C71.673164,313.108917 71.325165,317.906952 70.531563,322.823212 
z"/>
<path fill="#9DC2FB" opacity="1.000000" stroke="none" 
	d="
M86.232086,306.392273 
	C86.185059,311.979401 86.185059,317.099609 86.185059,322.608765 
	C82.889839,322.608765 80.332039,322.608765 76.949142,322.608765 
	C76.949142,313.957520 76.870201,305.233154 77.053276,296.514313 
	C77.075119,295.473907 78.391594,294.316742 79.334648,293.464508 
	C83.430016,289.763611 85.179512,285.159332 85.142624,279.705933 
	C85.084167,271.064392 85.029709,262.419556 85.227951,253.781952 
	C85.271622,251.878738 86.379585,249.999924 86.997452,248.109879 
	C87.582817,248.254059 88.168175,248.398224 88.753532,248.542404 
	C87.928726,267.670044 87.103928,286.797699 86.232086,306.392273 
z"/>
<path fill="#F8E594" opacity="1.000000" stroke="none" 
	d="
M92.994415,267.941711 
	C93.676094,259.332092 92.241142,250.904144 95.258484,243.127701 
	C95.772789,243.189728 96.287086,243.251740 96.801392,243.313766 
	C96.801392,269.651276 96.801392,295.988770 96.801392,322.632202 
	C94.927788,322.632202 93.201828,322.632202 90.684349,322.632202 
	C91.455116,304.481354 92.220535,286.456604 92.994415,267.941711 
z"/>
<path fill="#F8E594" opacity="1.000000" stroke="none" 
	d="
M209.795624,307.234924 
	C209.816284,312.519562 209.816284,317.328674 209.816284,322.687317 
	C208.124939,322.776123 206.390549,322.867188 204.208252,322.981812 
	C204.208252,296.250580 204.208252,269.780914 204.208252,243.311264 
	C204.684937,243.180054 205.161636,243.048843 205.638321,242.917648 
	C206.116135,244.604980 206.934113,246.275269 207.019760,247.982269 
	C208.002487,267.571411 208.873886,287.166138 209.795624,307.234924 
z"/>
<path fill="#F9A8A8" opacity="1.000000" stroke="none" 
	d="
M203.610748,183.093933 
	C205.050720,183.781693 206.033905,184.381714 206.995941,185.013916 
	C211.100723,187.711380 211.128311,192.180450 206.746582,194.428909 
	C200.321335,197.725967 193.722092,198.135956 187.332123,194.116623 
	C183.197662,191.516022 184.050797,187.565674 189.769562,183.406097 
	C194.377869,183.111176 198.761047,183.066086 203.610748,183.093933 
z"/>
<path fill="#F9A8A8" opacity="1.000000" stroke="none" 
	d="
M112.528625,183.084595 
	C114.643547,185.586716 118.205887,189.036240 117.562599,190.242035 
	C116.178017,192.837250 112.869492,195.086700 109.900169,195.968765 
	C106.788132,196.893250 102.954720,196.712234 99.806366,195.773819 
	C97.278725,195.020416 93.985916,192.717316 93.483177,190.536865 
	C93.049271,188.654953 96.068611,185.976837 97.786949,183.401917 
	C102.698250,183.107040 107.383904,183.060959 112.528625,183.084595 
z"/>
<path fill="#F1E196" opacity="1.000000" stroke="none" 
	d="
M119.023056,34.853550 
	C120.648056,47.284477 122.232430,59.277420 123.855797,71.565559 
	C120.458344,72.517227 118.571915,71.969215 118.122513,68.306549 
	C116.626198,56.111378 115.113792,43.915916 113.366020,31.755278 
	C112.861198,28.242769 114.280769,26.837126 117.901909,26.211262 
	C118.264313,28.962965 118.623375,31.689268 119.023056,34.853550 
z"/>
<path fill="#F2E196" opacity="1.000000" stroke="none" 
	d="
M179.939667,51.786812 
	C180.982376,43.110352 181.997101,34.880844 183.057587,26.280251 
	C186.170929,26.912308 188.319595,27.443747 187.785202,31.238243 
	C186.094681,43.242043 184.557724,55.269211 183.135117,67.307877 
	C182.735397,70.690559 181.739426,72.761108 177.274536,71.705719 
	C178.151413,65.231148 179.031555,58.732456 179.939667,51.786812 
z"/>
<path fill="#A1C6FE" opacity="1.000000" stroke="none" 
	d="
M128.459808,260.615356 
	C128.434814,260.560699 128.484818,260.669983 128.459808,260.615356 
z"/>
<path fill="#A1C6FE" opacity="1.000000" stroke="none" 
	d="
M173.453979,260.609192 
	C173.430542,260.556763 173.477402,260.661652 173.453979,260.609192 
z"/>
<path fill="#4469CC" opacity="1.000000" stroke="none" 
	d="
M161.011703,190.058655 
	C163.079300,189.471863 164.814667,189.085754 166.550018,188.699646 
	C165.821167,190.460556 165.584564,192.834702 164.281723,193.880447 
	C157.102463,199.642868 144.412552,199.525131 137.424500,193.672058 
	C136.216461,192.660202 136.007492,190.455505 135.337051,188.801804 
	C136.937592,189.024658 138.855347,188.756668 140.085968,189.551941 
	C146.878036,193.941132 153.666122,194.328659 161.011703,190.058655 
z"/>
<path fill="#3D68CE" opacity="1.000000" stroke="none" 
	d="
M156.633652,161.136719 
	C151.323807,157.490768 146.316132,158.268768 143.326767,163.567276 
	C135.375870,177.659912 138.119568,174.700317 121.808258,174.966095 
	C111.324883,175.136902 100.832939,174.838577 90.351936,175.070770 
	C85.693939,175.173965 84.022522,172.974960 84.013939,168.809525 
	C83.988892,156.658951 84.053192,144.507996 83.977890,132.357849 
	C83.952835,128.314545 85.661728,126.916817 89.739510,126.928238 
	C130.518677,127.042473 171.298462,127.050354 212.077530,126.920647 
	C216.428299,126.906815 218.075134,128.428574 218.035629,132.674622 
	C217.924164,144.657761 217.989670,156.642593 217.999054,168.626770 
	C218.002548,173.098129 216.162674,175.167801 211.331497,175.080063 
	C198.186539,174.841354 185.029297,174.788437 171.887741,175.107376 
	C167.025970,175.225357 164.107605,173.571762 162.039810,169.298187 
	C160.683731,166.495529 158.640503,164.025345 156.633652,161.136719 
M139.104065,160.645248 
	C145.740036,150.675095 157.061295,150.970444 163.214417,161.279648 
	C164.237808,162.994293 164.968277,164.973572 166.304688,166.384979 
	C167.507935,167.655762 169.343262,169.092773 170.923462,169.120773 
	C183.413284,169.342026 195.909607,169.163406 208.401917,169.297516 
	C211.633514,169.332199 212.293716,167.900513 212.257843,165.070496 
	C212.145920,156.242996 212.217819,147.413193 212.218384,138.584274 
	C212.218521,136.498444 212.218399,134.412613 212.218399,132.264130 
	C171.012619,132.264130 130.641815,132.264130 89.816956,132.264130 
	C89.816956,143.953751 89.716583,155.252106 90.001457,166.540756 
	C90.025055,167.475800 92.639900,169.092697 94.079056,169.124786 
	C104.235588,169.351273 114.428902,168.775787 124.551003,169.408142 
	C131.539703,169.844757 136.448151,168.257172 139.104065,160.645248 
z"/>
<path fill="#A2C7FE" opacity="1.000000" stroke="none" 
	d="
M138.938171,160.969772 
	C136.448151,168.257172 131.539703,169.844757 124.551003,169.408142 
	C114.428902,168.775787 104.235588,169.351273 94.079056,169.124786 
	C92.639900,169.092697 90.025055,167.475800 90.001457,166.540756 
	C89.716583,155.252106 89.816956,143.953751 89.816956,132.264130 
	C130.641815,132.264130 171.012619,132.264130 212.218399,132.264130 
	C212.218399,134.412613 212.218521,136.498444 212.218384,138.584274 
	C212.217819,147.413193 212.145920,156.242996 212.257843,165.070496 
	C212.293716,167.900513 211.633514,169.332199 208.401917,169.297516 
	C195.909607,169.163406 183.413284,169.342026 170.923462,169.120773 
	C169.343262,169.092773 167.507935,167.655762 166.304688,166.384979 
	C164.968277,164.973572 164.237808,162.994293 163.214417,161.279648 
	C157.061295,150.970444 145.740036,150.675095 138.938171,160.969772 
M118.686119,166.531693 
	C123.031311,164.740799 125.086403,161.490051 124.973022,156.799561 
	C124.912796,154.307739 125.042000,151.810013 124.940720,149.320831 
	C124.718925,143.869308 120.900780,139.952332 115.951180,139.984619 
	C111.208488,140.015564 107.379738,143.803391 107.081512,148.946426 
	C106.927826,151.597061 106.968269,154.266663 107.063805,156.922546 
	C107.308998,163.738876 110.882210,166.939148 118.686119,166.531693 
M194.236115,145.734131 
	C192.282150,141.450439 188.973709,139.263184 184.298828,140.157578 
	C180.078705,140.964966 177.735626,144.079681 177.267456,148.178528 
	C176.875549,151.609695 176.876602,155.157349 177.268311,158.588989 
	C177.806366,163.302948 182.245880,167.025894 186.397156,166.792511 
	C190.725800,166.549164 194.625107,162.694458 194.872726,157.872513 
	C195.066803,154.093033 194.691879,150.284332 194.236115,145.734131 
z"/>
<path fill="#3A65CD" opacity="1.000000" stroke="none" 
	d="
M118.309128,166.647247 
	C110.882210,166.939148 107.308998,163.738876 107.063805,156.922546 
	C106.968269,154.266663 106.927826,151.597061 107.081512,148.946426 
	C107.379738,143.803391 111.208488,140.015564 115.951180,139.984619 
	C120.900780,139.952332 124.718925,143.869308 124.940720,149.320831 
	C125.042000,151.810013 124.912796,154.307739 124.973022,156.799561 
	C125.086403,161.490051 123.031311,164.740799 118.309128,166.647247 
z"/>
<path fill="#3A65CD" opacity="1.000000" stroke="none" 
	d="
M194.402939,146.111374 
	C194.691879,150.284332 195.066803,154.093033 194.872726,157.872513 
	C194.625107,162.694458 190.725800,166.549164 186.397156,166.792511 
	C182.245880,167.025894 177.806366,163.302948 177.268311,158.588989 
	C176.876602,155.157349 176.875549,151.609695 177.267456,148.178528 
	C177.735626,144.079681 180.078705,140.964966 184.298828,140.157578 
	C188.973709,139.263184 192.282150,141.450439 194.402939,146.111374 
z"/>
</svg>